<svg xmlns="http://www.w3.org/2000/svg" xmlns:xlink="http://www.w3.org/1999/xlink" fill="none" version="1.1" width="13.296874046325684" height="14.666666984558105" viewBox="0 0 13.296874046325684 14.666666984558105"><g><path d="M7.55481,3.55919C7.73754,3.84836,7.98734,4.06203,8.30427,4.20021L8.68114,4.36453C8.93454,4.47499,9.13974,4.63016,9.29674,4.83002L9.29674,6C9.29674,7.84093,7.80434,9.33333,5.96341,9.33333C4.12243,9.33333,2.63005,7.84093,2.63005,6L2.63005,3.33333C2.63005,1.49239,4.12243,4.76837e-7,5.96341,4.76837e-7C6.93647,4.76837e-7,7.81214,0.41696,8.42154,1.08195L8.30414,1.13313C7.98734,1.27123,7.73754,1.48489,7.55481,1.77409C7.38287,2.04625,7.29687,2.34377,7.29687,2.66665C7.29687,2.98952,7.38287,3.28704,7.55481,3.55919ZM0,6.66667L1.34397,6.66667C1.66746,8.9282,3.6124,10.6667,5.96341,10.6667C8.31434,10.6667,10.2593,8.9282,10.5828,6.66667L11.9267,6.66667C11.6193,9.44773,9.41114,11.6559,6.63007,11.9634L6.63007,14.6667L5.29674,14.6667L5.29674,11.9634C2.51563,11.6559,0.307433,9.44773,0,6.66667ZM10.9414,5.12919L11.1058,4.75207C11.3988,4.07965,11.9265,3.54427,12.5851,3.25139L13.0915,3.02615C13.3653,2.90435,13.3653,2.50587,13.0915,2.38408L12.6134,2.17143C11.9379,1.87101,11.4007,1.31582,11.1127,0.620554L10.9439,0.21302C10.8263,-0.0710069,10.4341,-0.0710069,10.3164,0.21302L10.1476,0.620554C9.85967,1.31582,9.32247,1.87101,8.64701,2.17143L8.16887,2.38408C7.89507,2.50587,7.89507,2.90435,8.16887,3.02615L8.67534,3.25139C9.33387,3.54427,9.86161,4.07965,10.1546,4.75207L10.3189,5.12919C10.4393,5.40528,10.8211,5.40528,10.9414,5.12919Z" fill="#A6A6A6" fill-opacity="1" style="mix-blend-mode:passthrough"/></g></svg>